<svg width="35" height="35" viewBox="0 0 35 35" fill="none" xmlns="http://www.w3.org/2000/svg">
<path d="M5.35395 4.13037C5.35301 4.13037 5.35195 4.13037 5.351 4.13037C5.01998 4.13037 4.70863 4.25941 4.47352 4.49392C4.23583 4.73103 4.1049 5.04674 4.1049 5.38283V24.1633C4.1049 24.852 4.66738 25.4136 5.3589 25.4154C8.27416 25.4223 13.1584 26.03 16.5278 29.556V9.90174C16.5278 9.66829 16.4682 9.44897 16.3557 9.26749C13.5902 4.81387 8.27581 4.13721 5.35395 4.13037Z" fill="#8F7CFF"/>
<path d="M30.8952 24.1633V5.38271C30.8952 5.04662 30.7643 4.73091 30.5266 4.4938C30.2915 4.25929 29.9799 4.13025 29.6492 4.13025C29.6482 4.13025 29.6471 4.13025 29.6462 4.13025C26.7244 4.1372 21.4101 4.81387 18.6445 9.26749C18.5319 9.44897 18.4724 9.66828 18.4724 9.90173V29.5559C21.8419 26.0298 26.7261 25.4222 29.6413 25.4153C30.3327 25.4135 30.8952 24.8519 30.8952 24.1633Z" fill="#8F7CFF"/>
<path d="M33.7478 8.46143H32.8397V24.1633C32.8397 25.9217 31.407 27.3555 29.6459 27.3598C27.1732 27.3657 23.096 27.8493 20.2084 30.5822C25.2024 29.3594 30.4671 30.1543 33.4674 30.8381C33.8421 30.9234 34.2292 30.8352 34.5293 30.596C34.8284 30.3574 35 30.0006 35 29.6178V9.71365C35.0001 9.0232 34.4382 8.46143 33.7478 8.46143Z" fill="#8F7CFF"/>
<path d="M2.16034 24.1633V8.46143H1.25223C0.561888 8.46143 0 9.0232 0 9.71365V29.6174C0 30.0004 0.171583 30.357 0.470675 30.5956C0.770592 30.8348 1.15736 30.9233 1.53258 30.8377C4.53293 30.1538 9.79768 29.3591 14.7915 30.5819C11.904 27.849 7.82683 27.3656 5.35407 27.3597C3.59311 27.3555 2.16034 25.9217 2.16034 24.1633Z" fill="#8F7CFF"/>
</svg>
